HIERARCHY
ROOT joint_Root
{
	OFFSET 0.0 0.0 0.0
	CHANNELS 6 Xposition Yposition Zposition Zrotation Xrotation Yrotation 
	JOINT Hips
	{
		OFFSET -0.726466 93.3139 -2.00062
		CHANNELS 6 Xposition Yposition Zposition Zrotation Xrotation Yrotation 
		JOINT Spine
		{
			OFFSET 15.7357 0.0 0.0
			CHANNELS 6 Xposition Yposition Zposition Zrotation Xrotation Yrotation 
			JOINT Chest
			{
				OFFSET 8.98455 -0.406207 0.0
				CHANNELS 6 Xposition Yposition Zposition Zrotation Xrotation Yrotation 
				JOINT Neck
				{
					OFFSET 16.3773 0.0 0.0
					CHANNELS 6 Xposition Yposition Zposition Zrotation Xrotation Yrotation 
					JOINT Head
					{
						OFFSET 6.45672 0.0 0.0
						CHANNELS 6 Xposition Yposition Zposition Zrotation Xrotation Yrotation 
						End Site
						{
							OFFSET 0.0 0.0 0.0
						}
					}
				}
				JOINT Shoulder_L
				{
					OFFSET 12.9942 -0.242716 4.98039
					CHANNELS 6 Xposition Yposition Zposition Zrotation Xrotation Yrotation 
					JOINT UpperArm_L
					{
						OFFSET 5.34809 0.0 0.0
						CHANNELS 6 Xposition Yposition Zposition Zrotation Xrotation Yrotation 
						JOINT LowerArm_L
						{
							OFFSET 24.3286 1.87007e-05 0.0
							CHANNELS 6 Xposition Yposition Zposition Zrotation Xrotation Yrotation 
							JOINT Hand_L
							{
								OFFSET 22.2916 0.0 0.0
								CHANNELS 6 Xposition Yposition Zposition Zrotation Xrotation Yrotation 
								End Site
								{
									OFFSET 0.0 0.0 0.0
								}
							}
						}
					}
				}
				JOINT Shoulder_R
				{
					OFFSET 12.9945 -0.242716 -4.98039
					CHANNELS 6 Xposition Yposition Zposition Zrotation Xrotation Yrotation 
					JOINT UpperArm_R
					{
						OFFSET -5.34813 0.0 0.0
						CHANNELS 6 Xposition Yposition Zposition Zrotation Xrotation Yrotation 
						JOINT LowerArm_R
						{
							OFFSET -24.3289 0.000322201 0.0
							CHANNELS 6 Xposition Yposition Zposition Zrotation Xrotation Yrotation 
							JOINT Hand_R
							{
								OFFSET -22.2915 -0.000108084 0.0
								CHANNELS 6 Xposition Yposition Zposition Zrotation Xrotation Yrotation 
								End Site
								{
									OFFSET 0.0 0.0 0.0
								}
							}
						}
					}
				}
			}
		}
		JOINT UpperLeg_L
		{
			OFFSET -2.19248 -6.46944 0.0
			CHANNELS 6 Xposition Yposition Zposition Zrotation Xrotation Yrotation 
			JOINT LowerLeg_L
			{
				OFFSET 39.0811 0.0 -1.23785e-05
				CHANNELS 6 Xposition Yposition Zposition Zrotation Xrotation Yrotation 
				JOINT Foot_L
				{
					OFFSET 40.9854 0.0 -1.26872e-05
					CHANNELS 6 Xposition Yposition Zposition Zrotation Xrotation Yrotation 
					JOINT Toes_L
					{
						OFFSET 11.7543 0.0 0.0
						CHANNELS 6 Xposition Yposition Zposition Zrotation Xrotation Yrotation 
						End Site
						{
							OFFSET 0.0 0.0 0.0
						}
					}
				}
			}
		}
		JOINT UpperLeg_R
		{
			OFFSET -2.19251 6.46944 0.0
			CHANNELS 6 Xposition Yposition Zposition Zrotation Xrotation Yrotation 
			JOINT LowerLeg_R
			{
				OFFSET -39.0811 -0.00228153 -0.0401928
				CHANNELS 6 Xposition Yposition Zposition Zrotation Xrotation Yrotation 
				JOINT Foot_R
				{
					OFFSET -40.9854 0.0 0.0
					CHANNELS 6 Xposition Yposition Zposition Zrotation Xrotation Yrotation 
					JOINT Toes_R
					{
						OFFSET -11.7543 0.0 0.0
						CHANNELS 6 Xposition Yposition Zposition Zrotation Xrotation Yrotation 
						End Site
						{
							OFFSET 0.0 0.0 0.0
						}
					}
				}
			}
		}
	}
}
MOTION
Frames:	5
Frame Time:	0.0333333
0.000000 0.000000 0.000000 0.000000 0.000000 -0.000000 -1.158940 92.365700 -1.170470 88.155100 0.658288 4.701470 15.735700 0.000005 -0.000001 83.444000 85.229800 -82.963100 8.984550 -0.406207 -0.000000 1.717130 -1.114020 0.977662 16.377300 -0.000001 -0.000001 2.895250 -2.148260 0.700224 6.456720 -0.000001 -0.000000 5.215460 -2.484150 -0.514705 12.994200 -0.242716 4.980390 -89.766200 -0.716504 -71.924600 5.348090 -0.000007 -0.000001 -70.148600 39.674900 -12.148900 24.328600 0.000019 0.000005 1.391550 3.422980 -22.138400 22.291600 -0.000001 0.000005 5.668520 5.477660 -5.659100 12.994500 -0.242716 -4.980390 88.168400 5.851450 -72.585500 -5.348130 -0.000001 -0.000004 -65.747200 39.274800 -15.871300 -24.328900 0.000322 -0.000009 3.158070 9.476250 -18.532100 -22.291500 -0.000108 -0.000004 6.536000 5.332920 -0.870723 -2.192480 -6.469440 -0.000000 -175.016000 -6.713690 -2.416100 39.081100 -0.000007 -0.000012 -0.111026 0.266820 22.592600 40.985400 -0.000006 -0.000013 -0.207331 5.490580 -65.718600 11.754300 -0.000000 0.000003 -0.000046 -0.000527 -16.598000 -2.192510 6.469440 -0.000001 179.976000 15.322900 -179.520000 -39.081100 -0.002282 -0.040193 -0.044894 0.138877 19.146700 -40.985400 0.000008 0.000006 3.485530 7.537360 -65.456600 -11.754300 -0.000006 -0.000006 -0.008847 -0.094807 -20.434600
0.000000 0.000000 0.000000 0.000000 0.000000 -0.000000 -1.164400 92.372800 -1.198090 88.157200 0.672536 4.610660 15.735700 0.000005 -0.000001 83.549700 85.260200 -83.127000 8.984550 -0.406207 -0.000000 1.658020 -1.086890 0.860351 16.377300 -0.000001 -0.000001 2.753670 -2.137470 0.681737 6.456720 -0.000001 -0.000000 5.193400 -2.527690 -0.470813 12.994200 -0.242716 4.980390 -89.744100 -0.780632 -71.850400 5.348090 -0.000007 -0.000001 -70.151100 39.477400 -12.229500 24.328600 0.000019 0.000005 1.320070 3.245000 -22.150100 22.291600 -0.000001 0.000005 5.700740 5.478560 -5.693290 12.994500 -0.242716 -4.980390 88.125900 5.919220 -72.396000 -5.348130 -0.000001 -0.000004 -65.283200 37.086300 -16.083000 -24.328900 0.000322 -0.000009 4.220480 10.975500 -21.188900 -22.291500 -0.000108 -0.000004 5.877640 5.322060 -0.555058 -2.192480 -6.469440 -0.000000 -175.013000 -6.854350 -2.518510 39.081100 -0.000007 -0.000012 -0.108677 0.261552 22.563300 40.985400 -0.000006 -0.000013 -0.182436 5.618950 -65.675500 11.754300 -0.000000 0.000003 -0.000042 -0.000486 -16.596500 -2.192510 6.469440 -0.000001 179.983000 15.446900 -179.618000 -39.081100 -0.002282 -0.040193 -0.046049 0.142400 19.122000 -40.985400 0.000008 0.000006 3.539350 7.640480 -65.435900 -11.754300 -0.000006 -0.000006 -0.009183 -0.097426 -20.541700
0.000000 0.000000 0.000000 0.000000 0.000000 -0.000000 -1.152970 92.388700 -1.264620 88.158400 0.495154 4.531890 15.735700 0.000005 -0.000001 83.674100 85.299500 -83.318800 8.984550 -0.406207 -0.000000 1.581310 -1.054440 0.724510 16.377300 -0.000001 -0.000001 2.647610 -2.084970 0.655188 6.456720 -0.000001 -0.000000 5.120470 -2.513160 -0.485450 12.994200 -0.242716 4.980390 -89.729900 -0.818333 -71.732100 5.348090 -0.000007 -0.000001 -70.270000 39.117600 -12.058300 24.328600 0.000019 0.000005 1.373000 3.353270 -22.281400 22.291600 -0.000001 0.000005 5.738810 5.479380 -5.724890 12.994500 -0.242716 -4.980390 88.050100 6.058660 -72.122000 -5.348130 -0.000001 -0.000004 -64.418000 33.548500 -16.577100 -24.328900 0.000322 -0.000009 5.444980 11.388300 -25.773900 -22.291500 -0.000108 -0.000004 6.604440 5.329460 -0.768724 -2.192480 -6.469440 -0.000000 -175.039000 -6.913400 -2.578840 39.081100 -0.000007 -0.000012 -0.109158 0.263813 22.478400 40.985400 -0.000006 -0.000013 -0.205004 5.482990 -65.597400 11.754300 -0.000000 0.000003 -0.000045 -0.000517 -16.597700 -2.192510 6.469440 -0.000001 -179.997000 15.342400 -179.716000 -39.081100 -0.002282 -0.040193 -0.045829 0.142520 19.028400 -40.985400 0.000008 0.000006 3.427000 7.756820 -65.309100 -11.754300 -0.000006 -0.000006 -0.009052 -0.096411 -20.500200
0.000000 0.000000 0.000000 0.000000 0.000000 -0.000000 -1.126780 92.393300 -1.328830 88.107200 0.209046 4.496820 15.735700 0.000005 -0.000001 83.390900 85.309200 -83.084000 8.984550 -0.406207 -0.000000 1.556580 -1.095830 0.628033 16.377300 -0.000001 -0.000001 2.592720 -1.998210 0.652682 6.456720 -0.000001 -0.000000 4.929400 -2.418780 -0.705806 12.994200 -0.242716 4.980390 -89.726300 -0.823822 -71.619300 5.348090 -0.000007 -0.000001 -70.382800 38.782700 -11.845700 24.328600 0.000019 0.000005 1.368350 3.325430 -22.380600 22.291600 -0.000001 0.000005 5.655590 5.478550 -5.692940 12.994500 -0.242716 -4.980390 88.012700 6.076590 -71.851300 -5.348130 -0.000001 -0.000004 -63.113900 29.120900 -18.074600 -24.328900 0.000322 -0.000009 5.727890 9.461190 -31.398400 -22.291500 -0.000108 -0.000004 8.441590 5.342570 -1.154840 -2.192480 -6.469440 -0.000000 -175.007000 -7.082450 -2.632570 39.081100 -0.000007 -0.000012 -0.108686 0.262246 22.511400 40.985400 -0.000006 -0.000013 -0.205417 5.369120 -65.593200 11.754300 -0.000000 0.000003 -0.000035 -0.000416 -16.593800 -2.192510 6.469440 -0.000001 -179.928000 15.170700 -179.825000 -39.081100 -0.002282 -0.040193 -0.045218 0.140696 19.034800 -40.985400 0.000008 0.000006 3.502370 7.851030 -65.255000 -11.754300 -0.000006 -0.000006 -0.008911 -0.095312 -20.455300
0.000000 0.000000 0.000000 0.000000 0.000000 -0.000000 -1.065900 92.399800 -1.412530 88.024400 -0.306493 4.493760 15.735700 0.000005 -0.000001 83.359000 85.315300 -83.092500 8.984550 -0.406207 -0.000000 1.543440 -1.097460 0.547347 16.377300 -0.000001 -0.000001 2.602720 -1.900810 0.650327 6.456720 -0.000001 -0.000000 4.746680 -2.221370 -1.032530 12.994200 -0.242716 4.980390 -89.729400 -0.810340 -71.532800 5.348090 -0.000007 -0.000001 -70.450800 38.608800 -11.632300 24.328600 0.000019 0.000005 1.392840 3.382290 -22.397100 22.291600 -0.000001 0.000005 5.550260 5.474730 -5.547880 12.994500 -0.242716 -4.980390 88.026000 5.942710 -71.587700 -5.348130 -0.000001 -0.000004 -61.701200 23.991500 -20.764400 -24.328900 0.000322 -0.000009 6.321710 8.233030 -37.731100 -22.291500 -0.000108 -0.000004 10.649200 5.346280 -1.266100 -2.192480 -6.469440 -0.000000 -174.970000 -7.334380 -2.643200 39.081100 -0.000007 -0.000012 -0.106820 0.257081 22.563500 40.985400 -0.000006 -0.000013 -0.208803 5.092830 -65.604900 11.754300 -0.000000 0.000003 -0.000046 -0.000521 -16.597800 -2.192510 6.469440 -0.000001 -179.849000 14.864000 -179.915000 -39.081100 -0.002282 -0.040193 -0.042971 0.134324 19.016300 -40.985400 0.000008 0.000006 3.539200 8.066120 -65.154000 -11.754300 -0.000006 -0.000006 -0.008782 -0.094303 -20.414000
